STARTFONT 2.1
FONT -Bitstream-Charter-Medium-R-Normal--11-80-100-100-P-61-ISO8859-15
SIZE 8 100 100
FONTBOUNDINGBOX 11 14 -1 -3

STARTPROPERTIES 25
FONTNAME_REGISTRY ""
FAMILY_NAME "Charter"
FOUNDRY "Bitstream"
WEIGHT_NAME "Medium"
SETWIDTH_NAME "Normal"
SLANT "R"
ADD_STYLE_NAME ""
PIXEL_SIZE 11
POINT_SIZE 80
RESOLUTION_X 100
RESOLUTION_Y 100
SPACING "P"
AVERAGE_WIDTH 61
CHARSET_REGISTRY "ISO8859"
CHARSET_ENCODING "15"
CAP_HEIGHT 8
X_HEIGHT 5
CHARSET_COLLECTIONS "ASCII ISOLATIN1"
FACE_NAME "Bitstream Charter Roman"
COPYRIGHT "Copyright 1987 by Bitstream Inc. Charter Registered trademark of Bitstream Inc."
WEIGHT 10
QUAD_WIDTH 6
DEFAULT_CHAR 0
FONT_DESCENT 3
FONT_ASCENT 11
ENDPROPERTIES

CHARS 191

STARTCHAR space
ENCODING 32
SWIDTH 278 0
DWIDTH 3 0
BBX 1 1 0 0
BITMAP
00
ENDCHAR

STARTCHAR exclam
ENCODING 33
SWIDTH 338 0
DWIDTH 4 0
BBX 1 8 2 0
BITMAP
80
80
80
80
80
80
00
80
ENDCHAR

STARTCHAR quotedbl
ENCODING 34
SWIDTH 331 0
DWIDTH 5 0
BBX 3 3 1 4
BITMAP
A0
A0
A0
ENDCHAR

STARTCHAR numbersign
ENCODING 35
SWIDTH 745 0
DWIDTH 8 0
BBX 7 8 0 -1
BITMAP
14
14
7E
28
FE
48
50
50
ENDCHAR

STARTCHAR dollar
ENCODING 36
SWIDTH 556 0
DWIDTH 6 0
BBX 5 9 1 -1
BITMAP
78
A8
A0
60
38
A8
A8
F0
20
ENDCHAR

STARTCHAR percent
ENCODING 37
SWIDTH 852 0
DWIDTH 9 0
BBX 8 8 1 0
BITMAP
42
A4
A8
AA
55
15
25
42
ENDCHAR

STARTCHAR ampersand
ENCODING 38
SWIDTH 704 0
DWIDTH 8 0
BBX 7 8 1 0
BITMAP
60
90
90
60
6E
94
98
66
ENDCHAR

STARTCHAR quoteright
ENCODING 39
SWIDTH 201 0
DWIDTH 2 0
BBX 1 3 1 4
BITMAP
80
80
80
ENDCHAR

STARTCHAR parenleft
ENCODING 40
SWIDTH 417 0
DWIDTH 5 0
BBX 3 10 2 -2
BITMAP
20
40
80
80
80
80
80
80
40
20
ENDCHAR

STARTCHAR parenright
ENCODING 41
SWIDTH 417 0
DWIDTH 5 0
BBX 3 10 0 -2
BITMAP
80
40
20
20
20
20
20
20
40
80
ENDCHAR

STARTCHAR asterisk
ENCODING 42
SWIDTH 500 0
DWIDTH 6 0
BBX 5 4 1 4
BITMAP
20
F8
20
50
ENDCHAR

STARTCHAR plus
ENCODING 43
SWIDTH 833 0
DWIDTH 9 0
BBX 7 7 1 0
BITMAP
10
10
10
FE
10
10
10
ENDCHAR

STARTCHAR comma
ENCODING 44
SWIDTH 278 0
DWIDTH 3 0
BBX 1 3 1 -2
BITMAP
80
80
80
ENDCHAR

STARTCHAR hyphen
ENCODING 45
SWIDTH 319 0
DWIDTH 4 0
BBX 3 1 1 2
BITMAP
E0
ENDCHAR

STARTCHAR period
ENCODING 46
SWIDTH 278 0
DWIDTH 3 0
BBX 1 1 1 0
BITMAP
80
ENDCHAR

STARTCHAR slash
ENCODING 47
SWIDTH 481 0
DWIDTH 6 0
BBX 6 9 0 -1
BITMAP
04
08
08
10
10
20
40
40
80
ENDCHAR

STARTCHAR zero
ENCODING 48
SWIDTH 556 0
DWIDTH 6 0
BBX 5 8 1 0
BITMAP
20
50
88
88
88
88
50
20
ENDCHAR

STARTCHAR one
ENCODING 49
SWIDTH 556 0
DWIDTH 6 0
BBX 3 8 2 0
BITMAP
40
C0
40
40
40
40
40
E0
ENDCHAR

STARTCHAR two
ENCODING 50
SWIDTH 556 0
DWIDTH 6 0
BBX 5 8 1 0
BITMAP
70
98
88
08
10
20
48
F8
ENDCHAR

STARTCHAR three
ENCODING 51
SWIDTH 556 0
DWIDTH 6 0
BBX 5 8 1 0
BITMAP
70
88
10
30
08
08
88
70
ENDCHAR

STARTCHAR four
ENCODING 52
SWIDTH 556 0
DWIDTH 6 0
BBX 6 8 0 0
BITMAP
08
18
28
48
88
FC
08
08
ENDCHAR

STARTCHAR five
ENCODING 53
SWIDTH 556 0
DWIDTH 6 0
BBX 6 8 0 0
BITMAP
7C
40
40
78
04
04
48
70
ENDCHAR

STARTCHAR six
ENCODING 54
SWIDTH 556 0
DWIDTH 6 0
BBX 5 8 1 0
BITMAP
10
60
80
F0
88
88
88
70
ENDCHAR

STARTCHAR seven
ENCODING 55
SWIDTH 556 0
DWIDTH 6 0
BBX 5 8 1 0
BITMAP
F8
88
10
10
20
20
40
40
ENDCHAR

STARTCHAR eight
ENCODING 56
SWIDTH 556 0
DWIDTH 6 0
BBX 5 8 1 0
BITMAP
30
50
88
70
D8
88
88
70
ENDCHAR

STARTCHAR nine
ENCODING 57
SWIDTH 556 0
DWIDTH 6 0
BBX 5 8 1 0
BITMAP
70
88
88
88
78
10
20
40
ENDCHAR

STARTCHAR colon
ENCODING 58
SWIDTH 319 0
DWIDTH 4 0
BBX 1 5 2 0
BITMAP
80
00
00
00
80
ENDCHAR

STARTCHAR semicolon
ENCODING 59
SWIDTH 319 0
DWIDTH 4 0
BBX 2 7 1 -2
BITMAP
40
00
00
00
40
40
C0
ENDCHAR

STARTCHAR less
ENCODING 60
SWIDTH 833 0
DWIDTH 9 0
BBX 6 6 1 0
BITMAP
04
38
C0
C0
38
04
ENDCHAR

STARTCHAR equal
ENCODING 61
SWIDTH 833 0
DWIDTH 9 0
BBX 6 3 2 1
BITMAP
FC
00
FC
ENDCHAR

STARTCHAR greater
ENCODING 62
SWIDTH 833 0
DWIDTH 9 0
BBX 6 6 2 0
BITMAP
80
70
0C
0C
70
80
ENDCHAR

STARTCHAR question
ENCODING 63
SWIDTH 486 0
DWIDTH 5 0
BBX 4 8 0 0
BITMAP
60
90
10
30
40
40
00
40
ENDCHAR

STARTCHAR at
ENCODING 64
SWIDTH 942 0
DWIDTH 10 0
BBX 9 9 1 -2
BITMAP
1E00
6100
4E80
9480
A480
A500
9E00
4300
3C00
ENDCHAR

STARTCHAR A
ENCODING 65
SWIDTH 639 0
DWIDTH 7 0
BBX 7 8 0 0
BITMAP
10
38
28
28
7C
44
44
C6
ENDCHAR

STARTCHAR B
ENCODING 66
SWIDTH 604 0
DWIDTH 7 0
BBX 6 8 1 0
BITMAP
F8
4C
48
78
44
44
44
F8
ENDCHAR

STARTCHAR C
ENCODING 67
SWIDTH 632 0
DWIDTH 7 0
BBX 6 8 1 0
BITMAP
38
44
80
80
80
80
44
3C
ENDCHAR

STARTCHAR D
ENCODING 68
SWIDTH 694 0
DWIDTH 8 0
BBX 7 8 1 0
BITMAP
F8
44
42
42
42
42
44
F8
ENDCHAR

STARTCHAR E
ENCODING 69
SWIDTH 576 0
DWIDTH 6 0
BBX 5 8 1 0
BITMAP
F8
40
48
78
48
40
40
F8
ENDCHAR

STARTCHAR F
ENCODING 70
SWIDTH 537 0
DWIDTH 6 0
BBX 5 8 1 0
BITMAP
F8
48
50
70
50
40
40
C0
ENDCHAR

STARTCHAR G
ENCODING 71
SWIDTH 694 0
DWIDTH 8 0
BBX 7 8 1 0
BITMAP
3C
44
80
80
8E
84
44
3C
ENDCHAR

STARTCHAR H
ENCODING 72
SWIDTH 738 0
DWIDTH 8 0
BBX 7 8 1 0
BITMAP
EE
44
44
7C
44
44
44
EE
ENDCHAR

STARTCHAR I
ENCODING 73
SWIDTH 324 0
DWIDTH 4 0
BBX 3 8 1 0
BITMAP
E0
40
40
40
40
40
40
E0
ENDCHAR

STARTCHAR J
ENCODING 74
SWIDTH 444 0
DWIDTH 5 0
BBX 5 8 0 0
BITMAP
38
10
10
10
10
10
90
E0
ENDCHAR

STARTCHAR K
ENCODING 75
SWIDTH 611 0
DWIDTH 7 0
BBX 6 8 1 0
BITMAP
EC
48
50
50
70
48
48
E4
ENDCHAR

STARTCHAR L
ENCODING 76
SWIDTH 520 0
DWIDTH 6 0
BBX 5 8 1 0
BITMAP
E0
40
40
40
40
40
48
F8
ENDCHAR

STARTCHAR M
ENCODING 77
SWIDTH 866 0
DWIDTH 10 0
BBX 9 8 1 0
BITMAP
E180
6300
6300
5500
5500
5500
4900
EB80
ENDCHAR

STARTCHAR N
ENCODING 78
SWIDTH 713 0
DWIDTH 8 0
BBX 7 8 1 0
BITMAP
CE
64
64
54
54
4C
4C
E4
ENDCHAR

STARTCHAR O
ENCODING 79
SWIDTH 731 0
DWIDTH 8 0
BBX 7 8 1 0
BITMAP
38
44
82
82
82
82
44
38
ENDCHAR

STARTCHAR P
ENCODING 80
SWIDTH 558 0
DWIDTH 6 0
BBX 5 8 1 0
BITMAP
F0
48
48
48
70
40
40
E0
ENDCHAR

STARTCHAR Q
ENCODING 81
SWIDTH 731 0
DWIDTH 8 0
BBX 7 10 1 -2
BITMAP
38
44
82
82
82
82
44
38
10
1E
ENDCHAR

STARTCHAR R
ENCODING 82
SWIDTH 646 0
DWIDTH 7 0
BBX 6 8 1 0
BITMAP
F0
48
48
48
70
48
48
E4
ENDCHAR

STARTCHAR S
ENCODING 83
SWIDTH 556 0
DWIDTH 6 0
BBX 5 8 1 0
BITMAP
78
88
80
E0
18
88
88
F0
ENDCHAR

STARTCHAR T
ENCODING 84
SWIDTH 597 0
DWIDTH 7 0
BBX 7 8 0 0
BITMAP
FE
92
10
10
10
10
10
38
ENDCHAR

STARTCHAR U
ENCODING 85
SWIDTH 694 0
DWIDTH 8 0
BBX 7 8 1 0
BITMAP
EE
44
44
44
44
44
6C
30
ENDCHAR

STARTCHAR V
ENCODING 86
SWIDTH 618 0
DWIDTH 7 0
BBX 7 8 0 0
BITMAP
C6
44
44
64
28
28
38
10
ENDCHAR

STARTCHAR W
ENCODING 87
SWIDTH 928 0
DWIDTH 10 0
BBX 10 8 0 0
BITMAP
C4C0
4C40
4C80
4A80
5280
7280
3100
2100
ENDCHAR

STARTCHAR X
ENCODING 88
SWIDTH 600 0
DWIDTH 7 0
BBX 7 8 0 0
BITMAP
E6
44
28
10
38
28
44
CE
ENDCHAR

STARTCHAR Y
ENCODING 89
SWIDTH 586 0
DWIDTH 7 0
BBX 7 8 0 0
BITMAP
E6
44
24
28
10
10
10
38
ENDCHAR

STARTCHAR Z
ENCODING 90
SWIDTH 586 0
DWIDTH 6 0
BBX 5 8 0 0
BITMAP
F8
88
10
20
20
40
88
F8
ENDCHAR

STARTCHAR bracketleft
ENCODING 91
SWIDTH 421 0
DWIDTH 5 0
BBX 3 9 2 -2
BITMAP
E0
80
80
80
80
80
80
80
E0
ENDCHAR

STARTCHAR backslash
ENCODING 92
SWIDTH 481 0
DWIDTH 6 0
BBX 6 9 0 -1
BITMAP
80
40
40
20
10
10
08
08
04
ENDCHAR

STARTCHAR bracketright
ENCODING 93
SWIDTH 421 0
DWIDTH 5 0
BBX 3 9 0 -2
BITMAP
E0
20
20
20
20
20
20
20
E0
ENDCHAR

STARTCHAR asciicircum
ENCODING 94
SWIDTH 1000 0
DWIDTH 11 0
BBX 7 3 2 4
BITMAP
38
44
82
ENDCHAR

STARTCHAR underscore
ENCODING 95
SWIDTH 500 0
DWIDTH 6 0
BBX 6 1 0 -3
BITMAP
FC
ENDCHAR

STARTCHAR quoteleft
ENCODING 96
SWIDTH 201 0
DWIDTH 2 0
BBX 1 3 1 4
BITMAP
80
80
80
ENDCHAR

STARTCHAR a
ENCODING 97
SWIDTH 507 0
DWIDTH 6 0
BBX 5 5 1 0
BITMAP
60
30
D0
90
78
ENDCHAR

STARTCHAR b
ENCODING 98
SWIDTH 539 0
DWIDTH 6 0
BBX 5 8 1 0
BITMAP
80
80
80
F0
88
88
98
E0
ENDCHAR

STARTCHAR c
ENCODING 99
SWIDTH 446 0
DWIDTH 5 0
BBX 4 5 1 0
BITMAP
60
90
80
80
70
ENDCHAR

STARTCHAR d
ENCODING 100
SWIDTH 565 0
DWIDTH 7 0
BBX 5 8 1 0
BITMAP
18
08
08
38
48
88
C8
78
ENDCHAR

STARTCHAR e
ENCODING 101
SWIDTH 491 0
DWIDTH 5 0
BBX 4 5 1 0
BITMAP
60
90
F0
80
70
ENDCHAR

STARTCHAR f
ENCODING 102
SWIDTH 321 0
DWIDTH 3 0
BBX 3 8 1 0
BITMAP
60
A0
80
C0
80
80
80
C0
ENDCHAR

STARTCHAR g
ENCODING 103
SWIDTH 523 0
DWIDTH 6 0
BBX 5 8 1 -3
BITMAP
60
98
90
60
40
70
98
60
ENDCHAR

STARTCHAR h
ENCODING 104
SWIDTH 564 0
DWIDTH 7 0
BBX 5 8 1 0
BITMAP
80
80
80
F0
88
88
88
D8
ENDCHAR

STARTCHAR i
ENCODING 105
SWIDTH 280 0
DWIDTH 3 0
BBX 1 8 1 0
BITMAP
80
80
00
80
80
80
80
80
ENDCHAR

STARTCHAR j
ENCODING 106
SWIDTH 266 0
DWIDTH 3 0
BBX 3 11 -1 -3
BITMAP
20
20
00
20
20
20
20
20
20
A0
C0
ENDCHAR

STARTCHAR k
ENCODING 107
SWIDTH 518 0
DWIDTH 6 0
BBX 5 8 1 0
BITMAP
80
80
80
98
90
E0
90
C8
ENDCHAR

STARTCHAR l
ENCODING 108
SWIDTH 282 0
DWIDTH 3 0
BBX 1 8 1 0
BITMAP
80
80
80
80
80
80
80
80
ENDCHAR

STARTCHAR m
ENCODING 109
SWIDTH 843 0
DWIDTH 9 0
BBX 7 5 1 0
BITMAP
FE
92
92
92
DA
ENDCHAR

STARTCHAR n
ENCODING 110
SWIDTH 569 0
DWIDTH 6 0
BBX 5 5 1 0
BITMAP
F8
88
88
88
D8
ENDCHAR

STARTCHAR o
ENCODING 111
SWIDTH 539 0
DWIDTH 6 0
BBX 5 5 1 0
BITMAP
70
88
88
88
70
ENDCHAR

STARTCHAR p
ENCODING 112
SWIDTH 551 0
DWIDTH 6 0
BBX 5 8 1 -3
BITMAP
F0
88
88
98
E0
80
80
C0
ENDCHAR

STARTCHAR q
ENCODING 113
SWIDTH 531 0
DWIDTH 6 0
BBX 5 8 1 -3
BITMAP
38
C8
88
88
78
08
08
18
ENDCHAR

STARTCHAR r
ENCODING 114
SWIDTH 382 0
DWIDTH 4 0
BBX 3 5 1 0
BITMAP
E0
80
80
80
C0
ENDCHAR

STARTCHAR s
ENCODING 115
SWIDTH 400 0
DWIDTH 4 0
BBX 3 5 1 0
BITMAP
60
A0
40
A0
C0
ENDCHAR

STARTCHAR t
ENCODING 116
SWIDTH 335 0
DWIDTH 4 0
BBX 3 6 1 0
BITMAP
80
E0
80
80
80
E0
ENDCHAR

STARTCHAR u
ENCODING 117
SWIDTH 569 0
DWIDTH 7 0
BBX 5 5 1 0
BITMAP
98
88
88
88
78
ENDCHAR

STARTCHAR v
ENCODING 118
SWIDTH 494 0
DWIDTH 6 0
BBX 6 5 0 0
BITMAP
CC
48
48
70
20
ENDCHAR

STARTCHAR w
ENCODING 119
SWIDTH 771 0
DWIDTH 9 0
BBX 9 5 0 0
BITMAP
C980
4C80
5500
7500
2200
ENDCHAR

STARTCHAR x
ENCODING 120
SWIDTH 504 0
DWIDTH 6 0
BBX 6 5 0 0
BITMAP
EC
48
30
48
DC
ENDCHAR

STARTCHAR y
ENCODING 121
SWIDTH 495 0
DWIDTH 6 0
BBX 6 8 0 -3
BITMAP
EC
48
48
30
30
20
20
C0
ENDCHAR

STARTCHAR z
ENCODING 122
SWIDTH 468 0
DWIDTH 5 0
BBX 4 5 1 0
BITMAP
F0
A0
40
90
F0
ENDCHAR

STARTCHAR braceleft
ENCODING 123
SWIDTH 486 0
DWIDTH 5 0
BBX 4 9 0 -2
BITMAP
10
20
20
20
C0
20
20
20
10
ENDCHAR

STARTCHAR bar
ENCODING 124
SWIDTH 500 0
DWIDTH 6 0
BBX 1 11 3 -3
BITMAP
80
80
80
80
80
80
80
80
80
80
80
ENDCHAR

STARTCHAR braceright
ENCODING 125
SWIDTH 486 0
DWIDTH 5 0
BBX 4 9 0 -2
BITMAP
80
40
40
40
30
40
40
40
80
ENDCHAR

STARTCHAR c0126
ENCODING 126
SWIDTH 1000 0
DWIDTH 11 0
BBX 7 2 2 5
BITMAP
72
9C
ENDCHAR

STARTCHAR space
ENCODING 160
SWIDTH 278 0
DWIDTH 3 0
BBX 1 1 0 0
BITMAP
00
ENDCHAR

STARTCHAR exclamdown
ENCODING 161
SWIDTH 338 0
DWIDTH 4 0
BBX 1 8 2 0
BITMAP
80
00
80
80
80
80
80
80
ENDCHAR

STARTCHAR cent
ENCODING 162
SWIDTH 556 0
DWIDTH 6 0
BBX 5 7 1 -1
BITMAP
20
38
68
A0
68
38
20
ENDCHAR

STARTCHAR sterling
ENCODING 163
SWIDTH 556 0
DWIDTH 6 0
BBX 5 8 1 0
BITMAP
30
48
40
40
F0
40
40
F8
ENDCHAR

STARTCHAR EuroSign
ENCODING 164
SWIDTH 534 0
DWIDTH 6 0
BBX 7 8 -1 0
BITMAP
3E
40
FC
40
F8
40
42
3C
ENDCHAR

STARTCHAR yen
ENCODING 165
SWIDTH 556 0
DWIDTH 6 0
BBX 6 8 0 0
BITMAP
CC
48
48
DC
20
FC
20
70
ENDCHAR

STARTCHAR Scaron
ENCODING 166
SWIDTH 556 0
DWIDTH 6 0
BBX 5 11 1 0
BITMAP
50
20
00
78
88
80
E0
18
88
88
F0
ENDCHAR

STARTCHAR section
ENCODING 167
SWIDTH 500 0
DWIDTH 6 0
BBX 5 10 1 -2
BITMAP
70
88
C0
70
88
88
70
18
88
70
ENDCHAR

STARTCHAR scaron
ENCODING 168
SWIDTH 400 0
DWIDTH 4 0
BBX 3 8 1 0
BITMAP
A0
40
00
60
A0
40
A0
C0
ENDCHAR

STARTCHAR copyright
ENCODING 169
SWIDTH 900 0
DWIDTH 10 0
BBX 9 8 1 0
BITMAP
1C00
2200
5D00
A480
A480
5D00
2200
1C00
ENDCHAR

STARTCHAR ordfeminine
ENCODING 170
SWIDTH 380 0
DWIDTH 4 0
BBX 3 4 1 4
BITMAP
40
60
A0
60
ENDCHAR

STARTCHAR guillemotleft
ENCODING 171
SWIDTH 442 0
DWIDTH 5 0
BBX 4 4 0 0
BITMAP
50
A0
A0
50
ENDCHAR

STARTCHAR logicalnot
ENCODING 172
SWIDTH 833 0
DWIDTH 9 0
BBX 6 3 2 2
BITMAP
FC
04
04
ENDCHAR

STARTCHAR hyphen
ENCODING 173
SWIDTH 319 0
DWIDTH 4 0
BBX 3 1 1 2
BITMAP
E0
ENDCHAR

STARTCHAR registered
ENCODING 174
SWIDTH 900 0
DWIDTH 10 0
BBX 9 8 1 0
BITMAP
1C00
2200
7900
9480
9880
7700
2200
1C00
ENDCHAR

STARTCHAR macron
ENCODING 175
SWIDTH 500 0
DWIDTH 6 0
BBX 4 1 1 6
BITMAP
F0
ENDCHAR

STARTCHAR degree
ENCODING 176
SWIDTH 329 0
DWIDTH 4 0
BBX 3 3 1 4
BITMAP
40
A0
40
ENDCHAR

STARTCHAR plusminus
ENCODING 177
SWIDTH 833 0
DWIDTH 9 0
BBX 7 7 1 -1
BITMAP
10
10
FE
10
10
00
FE
ENDCHAR

STARTCHAR twosuperior
ENCODING 178
SWIDTH 367 0
DWIDTH 4 0
BBX 4 5 0 3
BITMAP
60
90
30
40
F0
ENDCHAR

STARTCHAR threesuperior
ENCODING 179
SWIDTH 367 0
DWIDTH 4 0
BBX 4 5 0 3
BITMAP
E0
30
60
10
E0
ENDCHAR

STARTCHAR Zcaron
ENCODING 180
SWIDTH 586 0
DWIDTH 6 0
BBX 5 11 0 0
BITMAP
50
20
00
F8
88
10
20
20
40
88
F8
ENDCHAR

STARTCHAR mu
ENCODING 181
SWIDTH 548 0
DWIDTH 6 0
BBX 6 8 0 -3
BITMAP
48
48
48
54
A8
80
80
80
ENDCHAR

STARTCHAR paragraph
ENCODING 182
SWIDTH 484 0
DWIDTH 5 0
BBX 5 9 0 -1
BITMAP
78
D0
D0
D0
50
10
10
10
10
ENDCHAR

STARTCHAR periodcentered
ENCODING 183
SWIDTH 278 0
DWIDTH 3 0
BBX 1 1 1 3
BITMAP
80
ENDCHAR

STARTCHAR zcaron
ENCODING 184
SWIDTH 468 0
DWIDTH 5 0
BBX 4 8 1 0
BITMAP
50
20
00
F0
A0
40
90
F0
ENDCHAR

STARTCHAR onesuperior
ENCODING 185
SWIDTH 367 0
DWIDTH 4 0
BBX 1 5 2 3
BITMAP
80
80
80
80
80
ENDCHAR

STARTCHAR ordmasculine
ENCODING 186
SWIDTH 405 0
DWIDTH 4 0
BBX 3 4 1 4
BITMAP
40
A0
A0
40
ENDCHAR

STARTCHAR guillemotright
ENCODING 187
SWIDTH 442 0
DWIDTH 5 0
BBX 4 4 1 0
BITMAP
A0
50
50
A0
ENDCHAR

STARTCHAR Ligature_OE
ENCODING 188
SWIDTH 891 0
DWIDTH 10 0
BBX 9 8 0 0
BITMAP
3F80
4880
8A00
8E00
8A00
8800
4880
3F80
ENDCHAR

STARTCHAR Ligature_oe
ENCODING 189
SWIDTH 712 0
DWIDTH 8 0
BBX 7 5 0 0
BITMAP
6C
92
9E
90
6E
ENDCHAR

STARTCHAR Ydiaeresis
ENCODING 190
SWIDTH 586 0
DWIDTH 7 0
BBX 7 10 0 0
BITMAP
28
00
E6
44
24
28
10
10
10
38
ENDCHAR

STARTCHAR questiondown
ENCODING 191
SWIDTH 486 0
DWIDTH 5 0
BBX 4 8 0 0
BITMAP
20
00
20
20
C0
80
D0
60
ENDCHAR

STARTCHAR Agrave
ENCODING 192
SWIDTH 639 0
DWIDTH 7 0
BBX 7 11 0 0
BITMAP
20
10
00
10
38
28
28
7C
44
44
C6
ENDCHAR

STARTCHAR Aacute
ENCODING 193
SWIDTH 639 0
DWIDTH 7 0
BBX 7 11 0 0
BITMAP
04
08
00
10
38
28
28
7C
44
44
C6
ENDCHAR

STARTCHAR Acircumflex
ENCODING 194
SWIDTH 639 0
DWIDTH 7 0
BBX 7 11 0 0
BITMAP
08
14
00
10
38
28
28
7C
44
44
C6
ENDCHAR

STARTCHAR Atilde
ENCODING 195
SWIDTH 639 0
DWIDTH 7 0
BBX 7 10 0 0
BITMAP
3C
00
10
38
28
28
7C
44
44
C6
ENDCHAR

STARTCHAR Adieresis
ENCODING 196
SWIDTH 639 0
DWIDTH 7 0
BBX 7 10 0 0
BITMAP
28
00
10
38
28
28
7C
44
44
C6
ENDCHAR

STARTCHAR Aring
ENCODING 197
SWIDTH 639 0
DWIDTH 7 0
BBX 7 10 0 0
BITMAP
38
00
10
38
28
28
7C
44
44
C6
ENDCHAR

STARTCHAR AE
ENCODING 198
SWIDTH 866 0
DWIDTH 9 0
BBX 10 8 -1 0
BITMAP
0FC0
0C40
1480
2780
3C80
4400
4440
CFC0
ENDCHAR

STARTCHAR Ccedilla
ENCODING 199
SWIDTH 632 0
DWIDTH 7 0
BBX 6 11 1 -3
BITMAP
38
44
80
80
80
80
44
3C
0C
04
18
ENDCHAR

STARTCHAR Egrave
ENCODING 200
SWIDTH 576 0
DWIDTH 6 0
BBX 5 11 1 0
BITMAP
40
20
00
F8
40
48
78
48
40
40
F8
ENDCHAR

STARTCHAR Eacute
ENCODING 201
SWIDTH 576 0
DWIDTH 6 0
BBX 5 11 1 0
BITMAP
08
10
00
F8
40
48
78
48
40
40
F8
ENDCHAR

STARTCHAR Ecircumflex
ENCODING 202
SWIDTH 576 0
DWIDTH 6 0
BBX 5 11 1 0
BITMAP
10
28
00
F8
40
48
78
48
40
40
F8
ENDCHAR

STARTCHAR Edieresis
ENCODING 203
SWIDTH 576 0
DWIDTH 6 0
BBX 5 10 1 0
BITMAP
50
00
F8
40
48
78
48
40
40
F8
ENDCHAR

STARTCHAR Igrave
ENCODING 204
SWIDTH 324 0
DWIDTH 4 0
BBX 4 11 0 0
BITMAP
80
40
00
70
20
20
20
20
20
20
70
ENDCHAR

STARTCHAR Iacute
ENCODING 205
SWIDTH 324 0
DWIDTH 4 0
BBX 3 11 1 0
BITMAP
20
40
00
E0
40
40
40
40
40
40
E0
ENDCHAR

STARTCHAR Icircumflex
ENCODING 206
SWIDTH 324 0
DWIDTH 4 0
BBX 3 11 1 0
BITMAP
40
A0
00
E0
40
40
40
40
40
40
E0
ENDCHAR

STARTCHAR Idieresis
ENCODING 207
SWIDTH 324 0
DWIDTH 4 0
BBX 4 10 0 0
BITMAP
A0
00
70
20
20
20
20
20
20
70
ENDCHAR

STARTCHAR Eth
ENCODING 208
SWIDTH 694 0
DWIDTH 8 0
BBX 8 8 0 0
BITMAP
7C
22
21
F9
21
21
22
7C
ENDCHAR

STARTCHAR Ntilde
ENCODING 209
SWIDTH 713 0
DWIDTH 8 0
BBX 7 10 1 0
BITMAP
3C
00
CE
64
64
54
54
4C
4C
E4
ENDCHAR

STARTCHAR Ograve
ENCODING 210
SWIDTH 731 0
DWIDTH 8 0
BBX 7 11 1 0
BITMAP
20
10
00
38
44
82
82
82
82
44
38
ENDCHAR

STARTCHAR Oacute
ENCODING 211
SWIDTH 731 0
DWIDTH 8 0
BBX 7 11 1 0
BITMAP
04
08
00
38
44
82
82
82
82
44
38
ENDCHAR

STARTCHAR Ocircumflex
ENCODING 212
SWIDTH 731 0
DWIDTH 8 0
BBX 7 11 1 0
BITMAP
08
14
00
38
44
82
82
82
82
44
38
ENDCHAR

STARTCHAR Otilde
ENCODING 213
SWIDTH 731 0
DWIDTH 8 0
BBX 7 10 1 0
BITMAP
3C
00
38
44
82
82
82
82
44
38
ENDCHAR

STARTCHAR Odieresis
ENCODING 214
SWIDTH 731 0
DWIDTH 8 0
BBX 7 10 1 0
BITMAP
28
00
38
44
82
82
82
82
44
38
ENDCHAR

STARTCHAR multiply
ENCODING 215
SWIDTH 833 0
DWIDTH 9 0
BBX 6 6 2 0
BITMAP
84
48
30
30
48
84
ENDCHAR

STARTCHAR Oslash
ENCODING 216
SWIDTH 731 0
DWIDTH 8 0
BBX 7 9 1 -1
BITMAP
3C
44
8A
92
92
A2
44
78
80
ENDCHAR

STARTCHAR Ugrave
ENCODING 217
SWIDTH 694 0
DWIDTH 8 0
BBX 7 11 1 0
BITMAP
20
10
00
EE
44
44
44
44
44
6C
30
ENDCHAR

STARTCHAR Uacute
ENCODING 218
SWIDTH 694 0
DWIDTH 8 0
BBX 7 11 1 0
BITMAP
04
08
00
EE
44
44
44
44
44
6C
30
ENDCHAR

STARTCHAR Ucircumflex
ENCODING 219
SWIDTH 694 0
DWIDTH 8 0
BBX 7 11 1 0
BITMAP
08
14
00
EE
44
44
44
44
44
6C
30
ENDCHAR

STARTCHAR Udieresis
ENCODING 220
SWIDTH 694 0
DWIDTH 8 0
BBX 7 10 1 0
BITMAP
28
00
EE
44
44
44
44
44
6C
30
ENDCHAR

STARTCHAR Yacute
ENCODING 221
SWIDTH 586 0
DWIDTH 7 0
BBX 7 11 0 0
BITMAP
08
10
00
E6
44
24
28
10
10
10
38
ENDCHAR

STARTCHAR Thorn
ENCODING 222
SWIDTH 558 0
DWIDTH 6 0
BBX 5 8 1 0
BITMAP
E0
70
48
48
48
48
70
E0
ENDCHAR

STARTCHAR germandbls
ENCODING 223
SWIDTH 609 0
DWIDTH 7 0
BBX 6 8 1 0
BITMAP
30
48
88
90
B0
8C
A4
D8
ENDCHAR

STARTCHAR agrave
ENCODING 224
SWIDTH 507 0
DWIDTH 6 0
BBX 5 8 1 0
BITMAP
80
40
00
60
30
D0
90
78
ENDCHAR

STARTCHAR aacute
ENCODING 225
SWIDTH 507 0
DWIDTH 6 0
BBX 5 8 1 0
BITMAP
10
20
00
60
30
D0
90
78
ENDCHAR

STARTCHAR acircumflex
ENCODING 226
SWIDTH 507 0
DWIDTH 6 0
BBX 5 8 1 0
BITMAP
20
50
00
60
30
D0
90
78
ENDCHAR

STARTCHAR atilde
ENCODING 227
SWIDTH 507 0
DWIDTH 6 0
BBX 5 7 1 0
BITMAP
F0
00
60
30
D0
90
78
ENDCHAR

STARTCHAR adieresis
ENCODING 228
SWIDTH 507 0
DWIDTH 6 0
BBX 5 7 1 0
BITMAP
A0
00
60
30
D0
90
78
ENDCHAR

STARTCHAR aring
ENCODING 229
SWIDTH 507 0
DWIDTH 6 0
BBX 5 8 1 0
BITMAP
70
70
00
60
30
D0
90
78
ENDCHAR

STARTCHAR ae
ENCODING 230
SWIDTH 725 0
DWIDTH 8 0
BBX 7 5 1 0
BITMAP
6C
92
3E
D0
6E
ENDCHAR

STARTCHAR ccedilla
ENCODING 231
SWIDTH 446 0
DWIDTH 5 0
BBX 4 8 1 -3
BITMAP
60
90
80
80
70
30
10
60
ENDCHAR

STARTCHAR egrave
ENCODING 232
SWIDTH 491 0
DWIDTH 5 0
BBX 4 8 1 0
BITMAP
80
40
00
60
90
F0
80
70
ENDCHAR

STARTCHAR eacute
ENCODING 233
SWIDTH 491 0
DWIDTH 5 0
BBX 4 8 1 0
BITMAP
10
20
00
60
90
F0
80
70
ENDCHAR

STARTCHAR ecircumflex
ENCODING 234
SWIDTH 491 0
DWIDTH 5 0
BBX 4 8 1 0
BITMAP
20
50
00
60
90
F0
80
70
ENDCHAR

STARTCHAR edieresis
ENCODING 235
SWIDTH 491 0
DWIDTH 5 0
BBX 4 7 1 0
BITMAP
A0
00
60
90
F0
80
70
ENDCHAR

STARTCHAR igrave
ENCODING 236
SWIDTH 280 0
DWIDTH 3 0
BBX 2 8 0 0
BITMAP
80
40
00
40
40
40
40
40
ENDCHAR

STARTCHAR iacute
ENCODING 237
SWIDTH 280 0
DWIDTH 3 0
BBX 3 8 1 0
BITMAP
20
40
00
80
80
80
80
80
ENDCHAR

STARTCHAR icircumflex
ENCODING 238
SWIDTH 280 0
DWIDTH 3 0
BBX 3 8 1 0
BITMAP
40
A0
00
80
80
80
80
80
ENDCHAR

STARTCHAR idieresis
ENCODING 239
SWIDTH 280 0
DWIDTH 3 0
BBX 3 7 0 0
BITMAP
A0
00
40
40
40
40
40
ENDCHAR

STARTCHAR eth
ENCODING 240
SWIDTH 528 0
DWIDTH 6 0
BBX 5 8 1 0
BITMAP
50
20
50
70
88
88
98
60
ENDCHAR

STARTCHAR ntilde
ENCODING 241
SWIDTH 569 0
DWIDTH 6 0
BBX 5 7 1 0
BITMAP
78
00
F8
88
88
88
D8
ENDCHAR

STARTCHAR ograve
ENCODING 242
SWIDTH 539 0
DWIDTH 6 0
BBX 5 8 1 0
BITMAP
40
20
00
70
88
88
88
70
ENDCHAR

STARTCHAR oacute
ENCODING 243
SWIDTH 539 0
DWIDTH 6 0
BBX 5 8 1 0
BITMAP
08
10
00
70
88
88
88
70
ENDCHAR

STARTCHAR ocircumflex
ENCODING 244
SWIDTH 539 0
DWIDTH 6 0
BBX 5 8 1 0
BITMAP
10
28
00
70
88
88
88
70
ENDCHAR

STARTCHAR otilde
ENCODING 245
SWIDTH 539 0
DWIDTH 6 0
BBX 5 7 1 0
BITMAP
78
00
70
88
88
88
70
ENDCHAR

STARTCHAR odieresis
ENCODING 246
SWIDTH 539 0
DWIDTH 6 0
BBX 5 7 1 0
BITMAP
50
00
70
88
88
88
70
ENDCHAR

STARTCHAR divide
ENCODING 247
SWIDTH 833 0
DWIDTH 9 0
BBX 7 5 1 0
BITMAP
10
00
FE
00
10
ENDCHAR

STARTCHAR oslash
ENCODING 248
SWIDTH 539 0
DWIDTH 6 0
BBX 5 7 1 -1
BITMAP
08
70
98
A8
C8
F0
80
ENDCHAR

STARTCHAR ugrave
ENCODING 249
SWIDTH 569 0
DWIDTH 7 0
BBX 5 8 1 0
BITMAP
40
20
00
98
88
88
88
78
ENDCHAR

STARTCHAR uacute
ENCODING 250
SWIDTH 569 0
DWIDTH 7 0
BBX 5 8 1 0
BITMAP
08
10
00
98
88
88
88
78
ENDCHAR

STARTCHAR ucircumflex
ENCODING 251
SWIDTH 569 0
DWIDTH 7 0
BBX 5 8 1 0
BITMAP
10
28
00
98
88
88
88
78
ENDCHAR

STARTCHAR udieresis
ENCODING 252
SWIDTH 569 0
DWIDTH 7 0
BBX 5 7 1 0
BITMAP
50
00
98
88
88
88
78
ENDCHAR

STARTCHAR yacute
ENCODING 253
SWIDTH 495 0
DWIDTH 6 0
BBX 6 11 0 -3
BITMAP
08
10
00
EC
48
48
30
30
20
20
C0
ENDCHAR

STARTCHAR thorn
ENCODING 254
SWIDTH 551 0
DWIDTH 6 0
BBX 5 11 1 -3
BITMAP
80
80
80
F0
88
88
98
E0
80
80
C0
ENDCHAR

STARTCHAR ydieresis
ENCODING 255
SWIDTH 495 0
DWIDTH 6 0
BBX 6 10 0 -3
BITMAP
50
00
EC
48
48
30
30
20
20
C0
ENDCHAR
ENDFONT
